<svg width="1200" height="360" viewBox="0 0 1200 360" fill="none" xmlns="http://www.w3.org/2000/svg" role="img" aria-labelledby="title desc">
  <title id="title">brand-maker fun typography logo</title>
  <desc id="desc">A playful rounded wordmark logo for brand-maker with colorful bubble lettering and spark accents.</desc>
  <defs>
    <filter id="softShadow" x="-8%" y="-12%" width="116%" height="132%" color-interpolation-filters="sRGB">
      <feDropShadow dx="0" dy="14" stdDeviation="10" flood-color="#7C2D12" flood-opacity="0.18"/>
    </filter>
    <linearGradient id="bg" x1="0" y1="0" x2="1200" y2="360" gradientUnits="userSpaceOnUse">
      <stop offset="0" stop-color="#FFF7ED"/>
      <stop offset="0.55" stop-color="#FFFBEB"/>
      <stop offset="1" stop-color="#FDF2F8"/>
    </linearGradient>
    <linearGradient id="brandFill" x1="140" y1="70" x2="1040" y2="285" gradientUnits="userSpaceOnUse">
      <stop offset="0" stop-color="#FF6B6B"/>
      <stop offset="0.28" stop-color="#F97316"/>
      <stop offset="0.55" stop-color="#8B5CF6"/>
      <stop offset="0.78" stop-color="#06B6D4"/>
      <stop offset="1" stop-color="#22C55E"/>
    </linearGradient>
  </defs>

  <rect width="1200" height="360" rx="72" fill="url(#bg)"/>

  <g opacity="0.85">
    <circle cx="94" cy="84" r="16" fill="#FDBA74"/>
    <circle cx="1096" cy="78" r="18" fill="#C084FC"/>
    <circle cx="1044" cy="282" r="12" fill="#67E8F9"/>
    <circle cx="154" cy="288" r="12" fill="#86EFAC"/>
    <path d="M111 180 L121 205 L148 211 L123 222 L118 250 L102 226 L74 230 L92 209 L80 184 L106 195 Z" fill="#FDE047"/>
    <path d="M1054 166 L1064 193 L1092 200 L1067 214 L1068 243 L1047 223 L1019 232 L1031 205 L1014 182 L1043 185 Z" fill="#F9A8D4"/>
  </g>

  <g filter="url(#softShadow)">
    <text x="600" y="211"
          text-anchor="middle"
          font-family="Baloo 2, Nunito, Arial Rounded MT Bold, Arial, sans-serif"
          font-size="122"
          font-weight="900"
          letter-spacing="-4"
          fill="#FFFFFF"
          stroke="#111827"
          stroke-width="18"
          stroke-linejoin="round"
          paint-order="stroke fill">
      brand-maker
    </text>
    <text x="600" y="211"
          text-anchor="middle"
          font-family="Baloo 2, Nunito, Arial Rounded MT Bold, Arial, sans-serif"
          font-size="122"
          font-weight="900"
          letter-spacing="-4"
          fill="url(#brandFill)"
          stroke="#FFFFFF"
          stroke-width="7"
          stroke-linejoin="round"
          paint-order="stroke fill">
      brand-maker
    </text>
  </g>

  <g>
    <path d="M242 81 C249 113 266 130 300 136 C266 143 249 160 242 192 C235 160 218 143 184 136 C218 130 235 113 242 81 Z" fill="#FACC15" stroke="#111827" stroke-width="7" stroke-linejoin="round"/>
    <path d="M940 226 C946 251 960 265 986 270 C960 275 946 289 940 314 C934 289 920 275 894 270 C920 265 934 251 940 226 Z" fill="#38BDF8" stroke="#111827" stroke-width="6" stroke-linejoin="round"/>
  </g>

  <text x="600" y="276"
        text-anchor="middle"
        font-family="Inter, ui-sans-serif, system-ui, sans-serif"
        font-size="28"
        font-weight="800"
        letter-spacing="6"
        fill="#7C2D12">
    PROMPTS FOR LOGOS THAT FEEL HANDMADE
  </text>
</svg>
