<svg width="512" height="512" viewBox="0 0 512 512" fill="none" xmlns="http://www.w3.org/2000/svg">
  <defs>
    <linearGradient id="bg" x1="0" y1="0" x2="512" y2="512" gradientUnits="userSpaceOnUse">
      <stop offset="0" stop-color="#1E1B4B"/>
      <stop offset="0.5" stop-color="#312E81"/>
      <stop offset="1" stop-color="#0F172A"/>
    </linearGradient>
    <linearGradient id="sparkle" x1="256" y1="120" x2="256" y2="392" gradientUnits="userSpaceOnUse">
      <stop offset="0" stop-color="#FFFFFF"/>
      <stop offset="1" stop-color="#E0E7FF"/>
    </linearGradient>
    <radialGradient id="glow" cx="256" cy="256" r="180" gradientUnits="userSpaceOnUse">
      <stop offset="0" stop-color="#818CF8" stop-opacity="0.4"/>
      <stop offset="1" stop-color="#818CF8" stop-opacity="0"/>
    </radialGradient>
  </defs>

  <rect width="512" height="512" rx="112" fill="url(#bg)"/>
  <circle cx="256" cy="256" r="180" fill="url(#glow)"/>

  <path d="M256 120
           C 260 200, 280 224, 360 232
           C 340 236, 320 244, 304 260
           C 288 276, 280 296, 276 316
           C 272 336, 268 356, 256 392
           C 244 356, 240 336, 236 316
           C 232 296, 224 276, 208 260
           C 192 244, 172 236, 152 232
           C 232 224, 252 200, 256 120 Z"
        fill="url(#sparkle)"/>

  <circle cx="100" cy="100" r="10" fill="#F59E0B"/>
  <circle cx="412" cy="100" r="10" fill="#EC4899"/>
  <circle cx="100" cy="412" r="10" fill="#10B981"/>
  <circle cx="412" cy="412" r="10" fill="#38BDF8"/>

  <circle cx="140" cy="256" r="3" fill="#FFFFFF" opacity="0.6"/>
  <circle cx="372" cy="256" r="3" fill="#FFFFFF" opacity="0.6"/>
  <circle cx="256" cy="140" r="3" fill="#FFFFFF" opacity="0.6"/>
  <circle cx="256" cy="372" r="3" fill="#FFFFFF" opacity="0.6"/>
</svg>
