<svg width="900" height="900" viewBox="0 0 900 900" fill="none" xmlns="http://www.w3.org/2000/svg" role="img" aria-labelledby="title desc">
  <title id="title">brand-maker fun typography logo</title>
  <desc id="desc">A dark square fun typography logo inspired by the user's reference image.</desc>
  <defs>
    <linearGradient id="bg" x1="0" y1="0" x2="900" y2="900" gradientUnits="userSpaceOnUse">
      <stop offset="0" stop-color="#3A424C"/>
      <stop offset="1" stop-color="#242B33"/>
    </linearGradient>
    <filter id="lift" x="-10%" y="-10%" width="120%" height="125%" color-interpolation-filters="sRGB">
      <feDropShadow dx="0" dy="18" stdDeviation="0" flood-color="#14181D" flood-opacity="0.55"/>
    </filter>
  </defs>

  <rect width="900" height="900" rx="188" fill="url(#bg)"/>

  <circle cx="146" cy="150" r="18" fill="#F4D35E"/>
  <circle cx="748" cy="156" r="15" fill="#F4D35E"/>
  <circle cx="126" cy="732" r="14" fill="#F4D35E"/>
  <path d="M734 675 C744 716 766 738 808 747 C766 756 744 778 734 819 C724 778 702 756 660 747 C702 738 724 716 734 675Z" fill="#F4D35E"/>
  <path d="M174 514 C181 542 196 557 225 563 C196 569 181 584 174 612 C167 584 152 569 123 563 C152 557 167 542 174 514Z" fill="#F1F5FF" opacity="0.9"/>

  <g filter="url(#lift)">
    <text x="450" y="330"
          text-anchor="middle"
          font-family="Baloo 2, Fredoka, Nunito, Arial Rounded MT Bold, Arial, sans-serif"
          font-size="172"
          font-weight="900"
          letter-spacing="-12"
          fill="#F1F5FF"
          stroke="#151A20"
          stroke-width="22"
          stroke-linejoin="round"
          paint-order="stroke fill">brand</text>
    <text x="450" y="505"
          text-anchor="middle"
          font-family="Baloo 2, Fredoka, Nunito, Arial Rounded MT Bold, Arial, sans-serif"
          font-size="176"
          font-weight="900"
          letter-spacing="-11"
          fill="#F1F5FF"
          stroke="#151A20"
          stroke-width="22"
          stroke-linejoin="round"
          paint-order="stroke fill">maker</text>
  </g>

  <rect x="248" y="595" width="404" height="76" rx="38" fill="#F1F5FF"/>
  <text x="450" y="646"
        text-anchor="middle"
        font-family="Inter, ui-sans-serif, system-ui, sans-serif"
        font-size="32"
        font-weight="900"
        letter-spacing="5"
        fill="#2F3842">LOGO PROMPTS</text>
</svg>
