<svg width="512" height="512" viewBox="0 0 512 512" fill="none" xmlns="http://www.w3.org/2000/svg" role="img" aria-labelledby="title desc">
  <title id="title">brand-maker icon</title>
  <desc id="desc">Fun typography BM icon with colorful rounded letters.</desc>
  <defs>
    <linearGradient id="bg" x1="0" y1="0" x2="512" y2="512" gradientUnits="userSpaceOnUse">
      <stop offset="0" stop-color="#FFEDD5"/>
      <stop offset="0.52" stop-color="#FEF3C7"/>
      <stop offset="1" stop-color="#FCE7F3"/>
    </linearGradient>
    <linearGradient id="fill" x1="84" y1="130" x2="428" y2="348" gradientUnits="userSpaceOnUse">
      <stop offset="0" stop-color="#FF4D6D"/>
      <stop offset="0.35" stop-color="#F97316"/>
      <stop offset="0.7" stop-color="#8B5CF6"/>
      <stop offset="1" stop-color="#06B6D4"/>
    </linearGradient>
    <filter id="shadow" x="-15%" y="-15%" width="130%" height="135%">
      <feDropShadow dx="0" dy="16" stdDeviation="12" flood-color="#7C2D12" flood-opacity="0.2"/>
    </filter>
  </defs>
  <rect width="512" height="512" rx="116" fill="url(#bg)"/>
  <circle cx="86" cy="96" r="18" fill="#FBBF24"/>
  <circle cx="426" cy="92" r="20" fill="#C084FC"/>
  <circle cx="94" cy="424" r="16" fill="#34D399"/>
  <circle cx="420" cy="414" r="15" fill="#67E8F9"/>
  <g filter="url(#shadow)">
    <text x="256" y="306"
          text-anchor="middle"
          font-family="Baloo 2, Nunito, Arial Rounded MT Bold, Arial, sans-serif"
          font-size="176"
          font-weight="900"
          letter-spacing="-14"
          fill="#FFFFFF"
          stroke="#111827"
          stroke-width="28"
          stroke-linejoin="round"
          paint-order="stroke fill">BM</text>
    <text x="256" y="306"
          text-anchor="middle"
          font-family="Baloo 2, Nunito, Arial Rounded MT Bold, Arial, sans-serif"
          font-size="176"
          font-weight="900"
          letter-spacing="-14"
          fill="url(#fill)"
          stroke="#FFFFFF"
          stroke-width="10"
          stroke-linejoin="round"
          paint-order="stroke fill">BM</text>
  </g>
  <path d="M148 110 C155 139 171 154 202 160 C171 166 155 181 148 210 C141 181 125 166 94 160 C125 154 141 139 148 110 Z" fill="#FDE047" stroke="#111827" stroke-width="7" stroke-linejoin="round"/>
  <path d="M374 324 C380 347 392 360 416 365 C392 370 380 383 374 406 C368 383 356 370 332 365 C356 360 368 347 374 324 Z" fill="#38BDF8" stroke="#111827" stroke-width="6" stroke-linejoin="round"/>
</svg>
