<svg width="512" height="512" viewBox="0 0 512 512" fill="none" xmlns="http://www.w3.org/2000/svg">
  <rect width="512" height="512" rx="120" fill="#EC4899"/>
  <path d="M128 140 C128 122, 142 108, 160 108 L184 108 C196 108, 206 116, 210 128 L256 296 L302 128 C306 116, 316 108, 328 108 L352 108 C370 108, 384 122, 384 140 L384 372 C384 390, 370 404, 352 404 L336 404 C318 404, 304 390, 304 372 L304 224 L276 320 C272 332, 262 340, 250 340 L262 340 C250 340, 240 332, 236 320 L208 224 L208 372 C208 390, 194 404, 176 404 L160 404 C142 404, 128 390, 128 372 Z" fill="#FFFFFF"/>
</svg>
