<svg width="512" height="512" viewBox="0 0 512 512" fill="none" xmlns="http://www.w3.org/2000/svg">
  <defs>
    <linearGradient id="bg2" x1="0" y1="0" x2="512" y2="512" gradientUnits="userSpaceOnUse">
      <stop offset="0" stop-color="#F472B6"/>
      <stop offset="1" stop-color="#DB2777"/>
    </linearGradient>
  </defs>

  <rect width="512" height="512" rx="112" fill="url(#bg2)"/>

  <path d="M256 100
           C 340 100, 400 160, 400 244
           C 400 292, 372 320, 336 320
           C 316 320, 300 328, 300 348
           C 300 368, 316 376, 336 376
           C 336 400, 320 420, 296 420
           C 252 420, 228 396, 220 360
           C 212 336, 200 328, 176 328
           C 132 328, 100 296, 100 244
           C 100 160, 172 100, 256 100 Z"
        fill="#FFFFFF"/>

  <circle cx="180" cy="200" r="20" fill="#EC4899"/>
  <circle cx="256" cy="180" r="20" fill="#8B5CF6"/>
  <circle cx="332" cy="200" r="20" fill="#3B82F6"/>
  <circle cx="332" cy="270" r="20" fill="#10B981"/>
  <circle cx="212" cy="270" r="20" fill="#F59E0B"/>
</svg>
